<svg width="20" height="21" viewBox="0 0 20 21" fill="none" xmlns="http://www.w3.org/2000/svg">
<path d="M12.0165 20.1749H7.98318M16.0498 7.0666C16.0498 5.46204 15.4124 3.9232 14.2778 2.78861C13.1432 1.65401 11.6044 1.0166 9.99985 1.0166C8.39529 1.0166 6.85645 1.65401 5.72185 2.78861C4.58725 3.9232 3.94985 5.46204 3.94985 7.0666C3.94985 10.1825 3.16382 12.3159 2.28576 13.7271C1.5451 14.9174 1.17477 15.5125 1.18835 15.6785C1.20338 15.8624 1.24233 15.9325 1.39047 16.0424C1.52426 16.1416 2.12737 16.1416 3.33361 16.1416H16.6661C17.8723 16.1416 18.4754 16.1416 18.6092 16.0424C18.7574 15.9325 18.7963 15.8624 18.8113 15.6785C18.8249 15.5125 18.4546 14.9174 17.7139 13.7271C16.8359 12.3159 16.0498 10.1825 16.0498 7.0666Z" stroke="white" stroke-width="1.65" stroke-linecap="round" stroke-linejoin="round"/>
</svg>
