<svg width="20" height="20" viewBox="0 0 20 20" fill="none" xmlns="http://www.w3.org/2000/svg">
<path d="M9 1.6C9 1.03995 9 0.759922 8.89101 0.54601C8.79513 0.357848 8.64215 0.204868 8.45399 0.108994C8.24008 8.04663e-07 7.96005 8.04847e-07 7.4 8.04847e-07H4.16146C3.63433 -1.63023e-05 3.17954 -3.10596e-05 2.80497 0.030572C2.40963 0.062873 2.01641 0.134189 1.63803 0.326983C1.07354 0.614603 0.614603 1.07354 0.326983 1.63803C0.134189 2.01641 0.062873 2.40963 0.030572 2.80497C-3.10596e-05 3.17954 -1.63023e-05 3.63429 8.04846e-07 4.16142V7.4C8.04846e-07 7.96005 8.04663e-07 8.24008 0.108994 8.45399C0.204868 8.64215 0.357848 8.79513 0.54601 8.89101C0.759922 9 1.03995 9 1.6 9H7.4C7.96005 9 8.24008 9 8.45399 8.89101C8.64215 8.79513 8.79513 8.64215 8.89101 8.45399C9 8.24008 9 7.96005 9 7.4V1.6Z" fill="white"/>
<path d="M1.6 11C1.03995 11 0.759922 11 0.54601 11.109C0.357848 11.2049 0.204868 11.3578 0.108994 11.546C8.04663e-07 11.7599 8.04846e-07 12.0399 8.04846e-07 12.6V15.8385C-1.63023e-05 16.3657 -3.10596e-05 16.8205 0.030572 17.195C0.062873 17.5904 0.134189 17.9836 0.326983 18.362C0.614603 18.9265 1.07354 19.3854 1.63803 19.673C2.01641 19.8658 2.40963 19.9371 2.80497 19.9694C3.17954 20 3.6343 20 4.16144 20H7.4C7.96005 20 8.24008 20 8.45399 19.891C8.64215 19.7951 8.79513 19.6422 8.89101 19.454C9 19.2401 9 18.9601 9 18.4V12.6C9 12.0399 9 11.7599 8.89101 11.546C8.79513 11.3578 8.64215 11.2049 8.45399 11.109C8.24008 11 7.96005 11 7.4 11H1.6Z" fill="white"/>
<path d="M11 18.4C11 18.9601 11 19.2401 11.109 19.454C11.2049 19.6422 11.3578 19.7951 11.546 19.891C11.7599 20 12.0399 20 12.6 20H15.8386C16.3657 20 16.8205 20 17.195 19.9694C17.5904 19.9371 17.9836 19.8658 18.362 19.673C18.9265 19.3854 19.3854 18.9265 19.673 18.362C19.8658 17.9836 19.9371 17.5904 19.9694 17.195C20 16.8205 20 16.3657 20 15.8386V12.6C20 12.0399 20 11.7599 19.891 11.546C19.7951 11.3578 19.6422 11.2049 19.454 11.109C19.2401 11 18.9601 11 18.4 11H12.6C12.0399 11 11.7599 11 11.546 11.109C11.3578 11.2049 11.2049 11.3578 11.109 11.546C11 11.7599 11 12.0399 11 12.6V18.4Z" fill="white"/>
<path d="M20 7.4C20 7.96005 20 8.24008 19.891 8.45399C19.7951 8.64215 19.6422 8.79513 19.454 8.89101C19.2401 9 18.9601 9 18.4 9H12.6C12.0399 9 11.7599 9 11.546 8.89101C11.3578 8.79513 11.2049 8.64215 11.109 8.45399C11 8.24008 11 7.96005 11 7.4V1.6C11 1.03995 11 0.759922 11.109 0.54601C11.2049 0.357848 11.3578 0.204868 11.546 0.108994C11.7599 8.04663e-07 12.0399 8.04847e-07 12.6 8.04847e-07H15.8385C16.3657 -1.63023e-05 16.8205 -3.10596e-05 17.195 0.030572C17.5904 0.062873 17.9836 0.134189 18.362 0.326983C18.9265 0.614603 19.3854 1.07354 19.673 1.63803C19.8658 2.01641 19.9371 2.40963 19.9694 2.80497C20 3.17954 20 3.6343 20 4.16144V7.4Z" fill="white"/>
</svg>
