<svg width="20" height="21" viewBox="0 0 20 21" fill="none" xmlns="http://www.w3.org/2000/svg">
<path fill-rule="evenodd" clip-rule="evenodd" d="M10.5228 0.336112C10.1805 0.243432 9.81975 0.243432 9.47745 0.336112C9.08008 0.443701 8.74553 0.706355 8.47853 0.915985L8.40389 0.974402L1.54388 6.30988C1.16725 6.60216 0.835438 6.85966 0.58818 7.19396C0.371188 7.48735 0.209542 7.81785 0.11118 8.16926C-0.000900149 8.56967 -0.000446317 8.98968 6.89057e-05 9.46642L0.000138524 16.8383C0.000120643 17.3654 0.000105144 17.8202 0.0307089 18.1948C0.0630099 18.5901 0.134326 18.9833 0.32712 19.3617C0.61474 19.9262 1.07368 20.3851 1.63817 20.6728C2.01655 20.8656 2.40977 20.9369 2.80511 20.9692C3.17968 20.9998 3.63443 20.9998 4.16157 20.9997H15.8387C16.3658 20.9998 16.8206 20.9998 17.1952 20.9692C17.5905 20.9369 17.9837 20.8656 18.3621 20.6728C18.9266 20.3851 19.3855 19.9262 19.6732 19.3617C19.866 18.9833 19.9373 18.5901 19.9696 18.1948C20.0002 17.8202 20.0002 17.3654 20.0001 16.8383L20.0002 9.46643C20.0007 8.98969 20.0012 8.56967 19.8891 8.16926C19.7907 7.81785 19.6291 7.48735 19.4121 7.19396C19.1648 6.85966 18.833 6.60216 18.4564 6.30987L11.5964 0.974403L11.5218 0.915989C11.2547 0.706358 10.9202 0.443702 10.5228 0.336112ZM7.09459 12.7505C6.95693 12.2156 6.41175 11.8937 5.8769 12.0313C5.34205 12.169 5.02006 12.7142 5.15772 13.249C5.71272 15.4053 7.66897 16.9998 10.0001 16.9998C12.3313 16.9998 14.2876 15.4053 14.8426 13.249C14.9802 12.7142 14.6582 12.169 14.1234 12.0313C13.5885 11.8937 13.0433 12.2156 12.9057 12.7505C12.5726 14.0446 11.3966 14.9998 10.0001 14.9998C8.60363 14.9998 7.42768 14.0446 7.09459 12.7505Z" fill="white"/>
</svg>
