<svg width="26" height="25" viewBox="0 0 26 25" fill="none" xmlns="http://www.w3.org/2000/svg">
<path d="M8.46255 12.1004H8.47263M13 12.1004H13.0101M17.5375 12.1004H17.5476M13 21.1754C18.012 21.1754 22.075 17.1124 22.075 12.1004C22.075 7.08841 18.012 3.02539 13 3.02539C7.98806 3.02539 3.92505 7.08841 3.92505 12.1004C3.92505 13.3075 4.16073 14.4596 4.5886 15.5131C4.67048 15.7147 4.71143 15.8156 4.72969 15.897C4.74756 15.9768 4.7541 16.0358 4.75411 16.1175C4.75412 16.201 4.73896 16.2919 4.70863 16.4739L4.11071 20.0614C4.0481 20.4371 4.01679 20.6249 4.07505 20.7608C4.12604 20.8797 4.22078 20.9744 4.33966 21.0254C4.47549 21.0837 4.66333 21.0523 5.03902 20.9897L8.62655 20.3918C8.80849 20.3615 8.89946 20.3463 8.98298 20.3463C9.06468 20.3463 9.12367 20.3529 9.20339 20.3707C9.28489 20.389 9.3857 20.43 9.58733 20.5118C10.6409 20.9397 11.7929 21.1754 13 21.1754ZM8.96672 12.1004C8.96672 12.3788 8.74099 12.6046 8.46255 12.6046C8.18411 12.6046 7.95838 12.3788 7.95838 12.1004C7.95838 11.8219 8.18411 11.5962 8.46255 11.5962C8.74099 11.5962 8.96672 11.8219 8.96672 12.1004ZM13.5042 12.1004C13.5042 12.3788 13.2785 12.6046 13 12.6046C12.7216 12.6046 12.4959 12.3788 12.4959 12.1004C12.4959 11.8219 12.7216 11.5962 13 11.5962C13.2785 11.5962 13.5042 11.8219 13.5042 12.1004ZM18.0417 12.1004C18.0417 12.3788 17.816 12.6046 17.5375 12.6046C17.2591 12.6046 17.0334 12.3788 17.0334 12.1004C17.0334 11.8219 17.2591 11.5962 17.5375 11.5962C17.816 11.5962 18.0417 11.8219 18.0417 12.1004Z" stroke="white" stroke-width="1.65" stroke-linecap="round" stroke-linejoin="round"/>
</svg>
