<svg width="20" height="19" viewBox="0 0 20 19" fill="none" xmlns="http://www.w3.org/2000/svg">
<path d="M19 16L17.9999 17.094C17.4695 17.6741 16.7501 18 16.0001 18C15.2501 18 14.5308 17.6741 14.0004 17.094C13.4692 16.5151 12.75 16.1901 12.0002 16.1901C11.2504 16.1901 10.5311 16.5151 9.99997 17.094M1 18H2.67454C3.16372 18 3.40832 18 3.63849 17.9447C3.84256 17.8957 4.03765 17.8149 4.2166 17.7053C4.41843 17.5816 4.59138 17.4086 4.93729 17.0627L17.5 4.49998C18.3285 3.67156 18.3285 2.32841 17.5 1.49998C16.6716 0.671555 15.3285 0.671556 14.5 1.49998L1.93726 14.0627C1.59136 14.4086 1.4184 14.5816 1.29472 14.7834C1.18506 14.9624 1.10425 15.1574 1.05526 15.3615C1 15.5917 1 15.8363 1 16.3255V18Z" stroke="white" stroke-width="1.5" stroke-linecap="round" stroke-linejoin="round"/>
</svg>
