<svg width="20" height="20" viewBox="0 0 20 20" fill="none" xmlns="http://www.w3.org/2000/svg">
<path fill-rule="evenodd" clip-rule="evenodd" d="M19.6748 16.2619C20.0824 16.6345 20.1108 17.2671 19.7382 17.6747L18.7381 18.7687C18.0285 19.5448 17.0459 20 16.0002 20C14.9549 20 13.9727 19.5452 13.2631 18.7696C12.9112 18.3863 12.4549 18.1901 12.0003 18.1901C11.5454 18.1901 11.0889 18.3864 10.7369 18.7701C10.3635 19.177 9.73097 19.2043 9.32402 18.8309C8.91707 18.4575 8.88985 17.8249 9.26323 17.418C9.97356 16.6438 10.9555 16.1901 12.0003 16.1901C13.045 16.1901 14.027 16.6438 14.7373 17.418L14.7385 17.4192C15.0897 17.8034 15.5458 18 16.0002 18C16.4546 18 16.9107 17.8034 17.2619 17.4193L18.262 16.3253C18.6346 15.9177 19.2672 15.8893 19.6748 16.2619Z" fill="white"/>
<path fill-rule="evenodd" clip-rule="evenodd" d="M13.793 1.79287C15.012 0.573926 16.9883 0.573923 18.2072 1.79287C19.4262 3.01183 19.4262 4.98814 18.2072 6.20709L5.64449 18.7698C5.6247 18.7896 5.60508 18.8093 5.58562 18.8288C5.29817 19.1168 5.04474 19.3707 4.7392 19.5579C4.47078 19.7224 4.17815 19.8436 3.87204 19.9171C3.52359 20.0007 3.16484 20.0004 2.75794 20C2.7304 20 2.70264 20 2.67464 20H1.0001C0.447817 20 0.00010175 19.5523 0.00010175 19V17.3255C0.00010175 17.2975 7.5882e-05 17.2697 5.0252e-05 17.2422C-0.000328357 16.8353 -0.000662141 16.4765 0.0829922 16.1281C0.156483 15.822 0.277696 15.5293 0.442182 15.2609C0.629418 14.9554 0.883329 14.7019 1.17132 14.4145C1.19081 14.395 1.21046 14.3754 1.23026 14.3556L13.793 1.79287Z" fill="white"/>
</svg>
